# xmcd
#
# Track frame offsets:
#	150
#	11637
#	20110
#	30687
#	40512
#	54165
#	63612
#	74492
#	87310
#	105765
#	118440
#	128110
#	139287
#	153467
#	167857
#	180535
#	193287
#	203865
#	216987
#	229807
#
# Disc length: 3298 seconds
#
# Revision: 0
# Processed by: cddbd v1.4PL0 Copyright (c) Steve Scherf et al.
# Submitted via: EasyCDDAExtractor 4.5.0.2
#
DISCID=270ce014
DTITLE=Johnny Cash - Just As I Am
DYEAR=1999
DGENRE=Gospel
TTITLE0=I Saw A Man
TTITLE1=Swing Low, Sweet Chariot
TTITLE2=Snow In His Hair
TTITLE3=The Great Speckled Bird
TTITLE4=If We Never Meet Again
TTITLE5=When He Reached Down His Hand For Me
TTITLE6=Daddy Sang Bass
TTITLE7=He Turned The Water Into Wine
TTITLE8=The Ten Commandments
TTITLE9=(There'll Be) Peace In The Valley (For Me)
TTITLE10=When The Roll Is Called Up Yonder
TTITLE11=Amazing Grace
TTITLE12=Farther Along
TTITLE13=Just As I Am
TTITLE14=In The Sweet By and By
TTITLE15=The Old Rugged Cross
TTITLE16=Rock of Ages
TTITLE17=Precious Memories
TTITLE18=Softly And Tenderly
TTITLE19=Were You There (When They Crucified My Lord)
EXTD=
EXTT0=
EXTT1=
EXTT2=
EXTT3=
EXTT4=
EXTT5=
EXTT6=
EXTT7=
EXTT8=
EXTT9=
EXTT10=
EXTT11=
EXTT12=
EXTT13=
EXTT14=
EXTT15=
EXTT16=
EXTT17=
EXTT18=
EXTT19=
PLAYORDER=
